<svg xmlns="http://www.w3.org/2000/svg" width="400" height="131.501" viewBox="0 0 400 131.501">
  <defs>
    <style>
      .cls-1 {
        fill: #fff;
      }

      .cls-2 {
        fill: #493b29;
      }

      .cls-3 {
        fill: #ff1f66;
      }

      .cls-4 {
        fill: #5cffd9;
      }

      .cls-5 {
        fill: #4849fb;
      }

      .cls-6 {
        fill: #fd1d66;
      }

      .cls-7 {
        fill: #62ffd8;
      }
    </style>
  </defs>
  <g id="colour-full-totem-logo" transform="translate(-60 -413)">
    <g id="rectangle" transform="translate(60 413)">
      <path id="outer-rectangle" class="cls-1" d="M52.485,0h295.03A52.485,52.485,0,0,1,400,52.485V79.016A52.485,52.485,0,0,1,347.515,131.5H52.485A52.485,52.485,0,0,1,0,79.016V52.485A52.485,52.485,0,0,1,52.485,0Z" transform="translate(0)"/>
      <path id="inner-rectangle-cutout" class="cls-2" d="M334.524,114.588H47.294a47.645,47.645,0,0,1-9.531-.961,47.035,47.035,0,0,1-16.911-7.116A47.432,47.432,0,0,1,3.717,85.7,47.059,47.059,0,0,1,.961,76.825,47.646,47.646,0,0,1,0,67.293v-20a47.644,47.644,0,0,1,.961-9.531A47.036,47.036,0,0,1,8.077,20.852,47.432,47.432,0,0,1,28.885,3.717,47.057,47.057,0,0,1,37.763.961,47.644,47.644,0,0,1,47.294,0h287.23a47.645,47.645,0,0,1,9.531.961,47.036,47.036,0,0,1,16.911,7.116A47.432,47.432,0,0,1,378.1,28.885a47.049,47.049,0,0,1,2.756,8.878,47.643,47.643,0,0,1,.961,9.531v20a47.539,47.539,0,0,1-1.266,10.917,47.036,47.036,0,0,1-3.605,10.013,13.111,13.111,0,0,0-20.964,14.994,13.242,13.242,0,0,0,3.31,4.374,47.078,47.078,0,0,1-24.769,7Z" transform="translate(8.457 8.457)"/>
    </g>
    <g id="totem-dot" transform="translate(98.386 444.712)">
      <g id="totem" transform="translate(0 0)">
        <g id="t" transform="translate(0 0)">
          <path id="Inner-t" class="cls-3" d="M297.132,192.619c0,.444,0,10.516,0,10.516s30.192-.04,31.074,0,1.7,1.122,1.72,2.8-.567,3.118-1.72,3.155-31.074,0-31.074,0-.209,6.644,0,15.159,4.911,12.853,11.268,12.789,18.282-.024,19.255,0,2.348,1.477,2.294,3.021-1.166,3.162-2.091,3.162-3.969-.017-19.457,0-18.426-10.538-18.426-18.971-.03-30.7,0-31.627.809-2.826,3.718-2.826A3.181,3.181,0,0,1,297.132,192.619Z" transform="translate(-286.887 -186.81)"/>
          <path id="outer-t" class="cls-4" d="M20.994,59.57c-6.443,0-11.543-1.894-15.159-5.629a18.915,18.915,0,0,1-3.5-5.138A24.3,24.3,0,0,1,.617,43.681a27.4,27.4,0,0,1-.566-3.934C-.016,38.775,0,38.18,0,38.174,0,37.867.084,7.4.044,5.461a4.378,4.378,0,0,1,.39-1.754,6.163,6.163,0,0,1,1.25-1.854A6.243,6.243,0,0,1,6.277,0H6.4A8.528,8.528,0,0,1,9.314.54a7.025,7.025,0,0,1,2.15,1.283A5.805,5.805,0,0,1,12.8,3.507a3.89,3.89,0,0,1,.458,1.739c0,2.139,0,7.8,0,8.039v0H13.5c3.5-.006,12.37-.021,19.21-.021,4.856,0,7.805.007,8.766.021a4.443,4.443,0,0,1,2.1.521,4.154,4.154,0,0,1,1.434,1.325,5.961,5.961,0,0,1,.823,1.878,8.732,8.732,0,0,1,.262,2.181,8.428,8.428,0,0,1-.292,2.215,6.647,6.647,0,0,1-.871,1.955,4.584,4.584,0,0,1-1.443,1.406,4.037,4.037,0,0,1-2.01.568c-1.559.035-9,.043-14.976.043-6.638,0-12.981-.009-13.248-.009,0,.04,0,9.242,0,11.606a14.055,14.055,0,0,0,.276,2.589,13.29,13.29,0,0,0,1.131,3.417,8.022,8.022,0,0,0,2.445,2.979,6.578,6.578,0,0,0,1.858.929,7.823,7.823,0,0,0,2.359.345h.095c2.122-.021,4.6-.032,7.577-.032,3.168,0,6.187.012,8.612.021h.009c1.5.006,2.678.011,3.451.011a4.218,4.218,0,0,1,2.067.543,5.347,5.347,0,0,1,1.606,1.4,6.791,6.791,0,0,1,1.041,1.907,6.306,6.306,0,0,1,.37,2.071,6.113,6.113,0,0,1-.441,2.148,8.607,8.607,0,0,1-1.158,2.076,6.729,6.729,0,0,1-1.63,1.567,4.119,4.119,0,0,1-.915.456,2.909,2.909,0,0,1-.94.164H39.9C39.014,59.566,37.162,59.57,20.994,59.57ZM33.233,56.4c4.161,0,6.107,0,7.042.006h.692a1.221,1.221,0,0,0,.709-.277,2.978,2.978,0,0,0,.663-.725,4.419,4.419,0,0,0,.5-1.014,3.972,3.972,0,0,0,.219-1.145,2.863,2.863,0,0,0-.247-1.238,3.573,3.573,0,0,0-.674-1.023,2.153,2.153,0,0,0-1.373-.759c-.562-.014-5.012-.035-10.005-.035-2.652,0-6.409.006-9.249.035h-.139A10.331,10.331,0,0,1,13.526,47a11.478,11.478,0,0,1-2.343-4,18.117,18.117,0,0,1-.942-5.564c-.108-4.4-.1-8.286-.078-10.773.026-2.694.078-4.37.078-4.387.075,0,13.319.016,22.505.016,5.345,0,8.228-.006,8.569-.016a1.521,1.521,0,0,0,1.3-.964,4.879,4.879,0,0,0,.419-2.192,4.5,4.5,0,0,0-.154-1.137,3.105,3.105,0,0,0-.384-.873,1.948,1.948,0,0,0-.545-.567,1.249,1.249,0,0,0-.638-.218c-.26-.012-3.1-.018-8.448-.018-8.93,0-22.065.017-22.62.018h-.005c0-.043,0-1.9,0-4.045,0-2.916,0-6.22,0-6.471a3.021,3.021,0,0,0-.628-1.58,2.99,2.99,0,0,0-1.046-.867A3.905,3.905,0,0,0,6.8,2.982,4.876,4.876,0,0,0,5,3.293a3.168,3.168,0,0,0-1.135.753,2.884,2.884,0,0,0-.595.928,2.555,2.555,0,0,0-.184.835c-.021.643-.013,11.389-.006,20.869,0,4.188.006,8.143.006,10.758,0,5.27,1.143,9.524,3.4,12.646a13.739,13.739,0,0,0,2.379,2.545,14.526,14.526,0,0,0,3.216,2,18.6,18.6,0,0,0,4.166,1.31,27.4,27.4,0,0,0,5.228.47h.039C26.08,56.4,30.024,56.4,33.233,56.4Z"/>
        </g>
        <g id="o" transform="translate(53.39 13.606)">
          <path id="o-2" data-name="o" class="cls-5" d="M43.274,46.628H21.449A20.024,20.024,0,0,1,15.825,45.6,26.927,26.927,0,0,1,8.7,42.143a20.428,20.428,0,0,1-6.111-6.467A19.628,19.628,0,0,1,0,25.629C0,24.123,0,23.1,0,22.28v-.011c0-1.145,0-1.836,0-2.731a15.023,15.023,0,0,1,1.716-6.089,26.453,26.453,0,0,1,5-7.009A20.732,20.732,0,0,1,21.449,0h.015c.681,0,6.827,0,12.892,0,3.755,0,6.755,0,8.917,0h.012a18.2,18.2,0,0,1,6.362,1.378A28.582,28.582,0,0,1,56.491,5.21,24.987,24.987,0,0,1,59.513,7.9a19.843,19.843,0,0,1,2.446,3.136,13.828,13.828,0,0,1,2.235,7.371V28.8a12.844,12.844,0,0,1-1.553,5.638,22.443,22.443,0,0,1-4.332,5.813,23.9,23.9,0,0,1-3.054,2.521,22.572,22.572,0,0,1-3.565,2.024A20.336,20.336,0,0,1,43.274,46.628Zm-21.9-32.818a7.017,7.017,0,0,0-2.859.6,7.4,7.4,0,0,0-2.122,1.429,5.263,5.263,0,0,0-1.776,3.12c0,.392,0,1.023,0,1.773v.015c0,2.081,0,4.929,0,6.272a5.471,5.471,0,0,0,1.651,3.636A6.1,6.1,0,0,0,18.321,32a8.139,8.139,0,0,0,3.053.547H42.588A7.536,7.536,0,0,0,47.8,30.794a5.246,5.246,0,0,0,1.274-1.775,4.975,4.975,0,0,0,.419-2c.069,0,.016-6.053,0-6.792,0-.073,0-.088,0-.089a5.888,5.888,0,0,0-.379-1.959,7.437,7.437,0,0,0-1.148-2.067,5.824,5.824,0,0,0-4.678-2.3Z" transform="translate(0 0)"/>
          <path id="inner-o" class="cls-1" d="M22.8,38.555c-2.312,0-4.144-.014-5.766-.044a16.784,16.784,0,0,1-6.521-1.628A19.473,19.473,0,0,1,5.1,33.056a18.439,18.439,0,0,1-3.688-5.238A13.7,13.7,0,0,1,.078,21.955a6.481,6.481,0,0,0-.032-.914,43.4,43.4,0,0,1,.032-5.205,13.456,13.456,0,0,1,1.356-5.208,19.631,19.631,0,0,1,3.537-5.14A16.708,16.708,0,0,1,17.037,0H38.162a21.942,21.942,0,0,1,6.966,1.124A19.683,19.683,0,0,1,50.9,4.152a15.075,15.075,0,0,1,3.954,4.419,10.939,10.939,0,0,1,1.52,5.3c.069,3.964.12,5.09.161,6,.036.783.064,1.4.089,3.571.035,3.035-1.448,6.226-4.176,8.985A20.963,20.963,0,0,1,46.012,36.8a19.729,19.729,0,0,1-7.85,1.707c-3.449,0-6.517.013-9.224.025h0C26.744,38.546,24.677,38.555,22.8,38.555ZM17.121,5.8a9.062,9.062,0,0,0-4,.96A11.9,11.9,0,0,0,9.886,9.129,9.694,9.694,0,0,0,6.9,15.061c-.044,3.52-.061,5.186,0,7.779a7.49,7.49,0,0,0,.673,2.566A12.968,12.968,0,0,0,9.5,28.534a11.217,11.217,0,0,0,3.2,2.673,9.677,9.677,0,0,0,4.47,1.2c2.429.059,8.723.2,14.684.2,4.125,0,7.194-.066,9.123-.2a8.305,8.305,0,0,0,3.459-1.026A9.96,9.96,0,0,0,47.1,29.227a10.657,10.657,0,0,0,1.729-2.666A6.918,6.918,0,0,0,49.483,24c.071-2.531.2-7.243,0-9.237a8.78,8.78,0,0,0-3.488-6.733A11.029,11.029,0,0,0,40.079,5.8c-1.044-.055-3.571-.083-7.512-.083-6.687,0-15.31.083-15.4.083h-.05Z" transform="translate(3.726 4.218)"/>
        </g>
        <g id="t-2" data-name="t" transform="translate(126.85 0)">
          <path id="Inner-t-2" data-name="Inner-t" class="cls-5" d="M297.132,192.619c0,.444,0,10.516,0,10.516s30.192-.04,31.074,0,1.7,1.122,1.72,2.8-.567,3.118-1.72,3.155-31.074,0-31.074,0-.209,6.644,0,15.159,4.911,12.853,11.268,12.789,18.282-.024,19.255,0,2.348,1.477,2.294,3.021-1.166,3.162-2.091,3.162-3.969-.017-19.457,0-18.426-10.538-18.426-18.971-.03-30.7,0-31.627.809-2.826,3.718-2.826A3.181,3.181,0,0,1,297.132,192.619Z" transform="translate(-286.887 -186.81)"/>
          <path id="outer-t-2" data-name="outer-t" class="cls-4" d="M20.994,59.57c-6.443,0-11.543-1.894-15.159-5.629a18.915,18.915,0,0,1-3.5-5.138A24.3,24.3,0,0,1,.617,43.681a27.4,27.4,0,0,1-.566-3.934C-.016,38.775,0,38.18,0,38.174,0,37.867.084,7.4.044,5.461a4.378,4.378,0,0,1,.39-1.754,6.163,6.163,0,0,1,1.25-1.854A6.243,6.243,0,0,1,6.277,0H6.4A8.528,8.528,0,0,1,9.314.54a7.025,7.025,0,0,1,2.15,1.283A5.805,5.805,0,0,1,12.8,3.507a3.89,3.89,0,0,1,.458,1.739c0,2.139,0,7.8,0,8.039v0H13.5c3.5-.006,12.37-.021,19.21-.021,4.856,0,7.805.007,8.766.021a4.443,4.443,0,0,1,2.1.521,4.154,4.154,0,0,1,1.434,1.325,5.961,5.961,0,0,1,.823,1.878,8.732,8.732,0,0,1,.262,2.181,8.428,8.428,0,0,1-.292,2.215,6.647,6.647,0,0,1-.871,1.955,4.584,4.584,0,0,1-1.443,1.406,4.037,4.037,0,0,1-2.01.568c-1.559.035-9,.043-14.976.043-6.638,0-12.981-.009-13.248-.009,0,.04,0,9.242,0,11.606a14.055,14.055,0,0,0,.276,2.589,13.29,13.29,0,0,0,1.131,3.417,8.022,8.022,0,0,0,2.445,2.979,6.578,6.578,0,0,0,1.858.929,7.823,7.823,0,0,0,2.359.345h.095c2.122-.021,4.6-.032,7.577-.032,3.168,0,6.187.012,8.612.021h.009c1.5.006,2.678.011,3.451.011a4.218,4.218,0,0,1,2.067.543,5.347,5.347,0,0,1,1.606,1.4,6.791,6.791,0,0,1,1.041,1.907,6.306,6.306,0,0,1,.37,2.071,6.113,6.113,0,0,1-.441,2.148,8.607,8.607,0,0,1-1.158,2.076,6.729,6.729,0,0,1-1.63,1.567,4.119,4.119,0,0,1-.915.456,2.909,2.909,0,0,1-.94.164H39.9C39.014,59.566,37.162,59.57,20.994,59.57ZM33.233,56.4c4.161,0,6.107,0,7.042.006h.692a1.221,1.221,0,0,0,.709-.277,2.978,2.978,0,0,0,.663-.725,4.419,4.419,0,0,0,.5-1.014,3.972,3.972,0,0,0,.219-1.145,2.863,2.863,0,0,0-.247-1.238,3.573,3.573,0,0,0-.674-1.023,2.153,2.153,0,0,0-1.373-.759c-.562-.014-5.012-.035-10.005-.035-2.652,0-6.409.006-9.249.035h-.139A10.331,10.331,0,0,1,13.526,47a11.478,11.478,0,0,1-2.343-4,18.117,18.117,0,0,1-.942-5.564c-.108-4.4-.1-8.286-.078-10.773.026-2.694.078-4.37.078-4.387.075,0,13.319.016,22.505.016,5.345,0,8.228-.006,8.569-.016a1.521,1.521,0,0,0,1.3-.964,4.879,4.879,0,0,0,.419-2.192,4.5,4.5,0,0,0-.154-1.137,3.105,3.105,0,0,0-.384-.873,1.948,1.948,0,0,0-.545-.567,1.249,1.249,0,0,0-.638-.218c-.26-.012-3.1-.018-8.448-.018-8.93,0-22.065.017-22.62.018h-.005c0-.043,0-1.9,0-4.045,0-2.916,0-6.22,0-6.471a3.021,3.021,0,0,0-.628-1.58,2.99,2.99,0,0,0-1.046-.867A3.905,3.905,0,0,0,6.8,2.982,4.876,4.876,0,0,0,5,3.293a3.168,3.168,0,0,0-1.135.753,2.884,2.884,0,0,0-.595.928,2.555,2.555,0,0,0-.184.835c-.021.643-.013,11.389-.006,20.869,0,4.188.006,8.143.006,10.758,0,5.27,1.143,9.524,3.4,12.646a13.739,13.739,0,0,0,2.379,2.545,14.526,14.526,0,0,0,3.216,2,18.6,18.6,0,0,0,4.166,1.31,27.4,27.4,0,0,0,5.228.47h.039C26.08,56.4,30.024,56.4,33.233,56.4Z" transform="translate(0)"/>
        </g>
        <g id="equals" transform="translate(182.828 14.337)">
          <g id="lower-bar" transform="translate(0 31.712)">
            <path id="bar" class="cls-5" d="M29.725,14.134c-5.938,0-13.109,0-18.345-.008h-.025l-5.954,0a4.752,4.752,0,0,1-4.247-2.14A8.241,8.241,0,0,1,0,7.378,10.157,10.157,0,0,1,1.171,2.457,5.038,5.038,0,0,1,2.836.691,4.768,4.768,0,0,1,5.4,0C5.538,0,19.241.01,29.236.01c5.873,0,9.337,0,10.3-.009h.026a4.108,4.108,0,0,1,3.593,2.3A8.727,8.727,0,0,1,44.314,6.53a12.714,12.714,0,0,1-.809,4.754,4.139,4.139,0,0,1-3.972,2.839C38.29,14.13,34.99,14.134,29.725,14.134ZM5.364,3.947c-.376,0-.761.365-1.057,1a5.473,5.473,0,0,0-.468,2.163A4.088,4.088,0,0,0,4.72,9.822a.908.908,0,0,0,.626.313H5.37c.389-.015,8.24-.017,12.885-.017,9.632,0,20.542.009,20.847.017h.011c.229,0,.625-.2.983-.749a4.108,4.108,0,0,0,.585-2.275,4.186,4.186,0,0,0-.635-2.341,1.677,1.677,0,0,0-1.212-.822c-.227-.007-3.26-.011-9.017-.011-9.741,0-24.31.011-24.447.011Z" transform="translate(0 0)"/>
            <path id="inner-bar" class="cls-1" d="M545.695,393.095c-.808-.008-1.511,1.609-1.531,3.163s.744,3.054,1.531,3.024,33.2-.014,33.732,0,1.58-.974,1.58-3.024-1.078-3.139-1.847-3.163S545.695,393.095,545.695,393.095Z" transform="translate(-540.325 -389.147)"/>
          </g>
          <g id="upper-bar" transform="translate(0 0)">
            <path id="bar-2" data-name="bar" class="cls-6" d="M29.725,14.134c-5.938,0-13.109,0-18.345-.008h-.025l-5.954,0a4.752,4.752,0,0,1-4.247-2.14A8.241,8.241,0,0,1,0,7.378,10.157,10.157,0,0,1,1.171,2.457,5.038,5.038,0,0,1,2.836.691,4.768,4.768,0,0,1,5.4,0C5.538,0,19.241.01,29.236.01c5.873,0,9.337,0,10.3-.009h.026a4.108,4.108,0,0,1,3.593,2.3A8.727,8.727,0,0,1,44.314,6.53a12.714,12.714,0,0,1-.809,4.754,4.139,4.139,0,0,1-3.972,2.839C38.29,14.13,34.99,14.134,29.725,14.134ZM5.364,3.947c-.376,0-.761.365-1.057,1a5.473,5.473,0,0,0-.468,2.163A4.088,4.088,0,0,0,4.72,9.822a.908.908,0,0,0,.626.313H5.37c.389-.015,8.24-.017,12.885-.017,9.632,0,20.542.009,20.847.017h.011c.229,0,.625-.2.983-.749a4.108,4.108,0,0,0,.585-2.275,4.186,4.186,0,0,0-.635-2.341,1.677,1.677,0,0,0-1.212-.822c-.227-.007-3.26-.011-9.017-.011-9.741,0-24.31.011-24.447.011Z" transform="translate(0)"/>
            <path id="inner-bar-2" data-name="inner-bar" class="cls-1" d="M545.695,393.095c-.808-.008-1.511,1.609-1.531,3.163s.744,3.054,1.531,3.024,33.2-.014,33.732,0,1.58-.974,1.58-3.024-1.078-3.139-1.847-3.163S545.695,393.095,545.695,393.095Z" transform="translate(-540.325 -389.147)"/>
          </g>
        </g>
        <g id="m" transform="translate(234.502 12.807)">
          <path id="inner-m" class="cls-2" d="M673.429,395.959c-.023-.079.022-2.076,0-3.4s-1.982-2.253-3.248-2.267-3.418.753-3.433,2.267-.007,31.093,0,33.639,2.166,3.245,3.433,3.369,4.023-.641,4-3.369.23-16.161.245-21.407,9.161-8.4,14.84-8.829,14.4,1.159,14.822,8.829c.154,4.655-.008,19.205,0,21.664s3.042,3.042,3.7,3.112,4.11-.627,4.176-3.369,0-17.779,0-21.407c.15-4.58,8.452-8.155,15.706-8.829s14.613,3.131,14.635,8.829c.023,3.492-.029,18.957,0,21.664s3.123,3.085,3.785,3.112a3.248,3.248,0,0,0,3.572-3.369c-.049-3.183,0-18.661,0-21.407-.745-10.264-12.463-14.975-19.685-14.975s-14.274,1.831-20.939,8.459c-4.807-7.558-14.148-8.758-19.338-8.459A26.783,26.783,0,0,0,673.429,395.959Z" transform="translate(-662.747 -385.707)"/>
          <path id="outer-m" class="cls-7" d="M82.786,47.676h0a7.363,7.363,0,0,1-2.806-.557A7.7,7.7,0,0,1,77.7,45.671a7.1,7.1,0,0,1-1.541-2,5.127,5.127,0,0,1-.58-2.223c-.018-1.434-.008-5.53,0-9.867.011-5,.023-10.171,0-12.381a3.59,3.59,0,0,0-1.01-2.463,6.868,6.868,0,0,0-2.48-1.6,18.488,18.488,0,0,0-6.478-1.119c-.25,0-.5,0-.737.015a24.6,24.6,0,0,0-7.292,1.681,13.577,13.577,0,0,0-3.071,1.617A2.737,2.737,0,0,0,53.193,19.2c-.063,1.26-.031,5.9,0,10.8.033,4.944.068,10.057,0,11.444a6.226,6.226,0,0,1-2.248,4.108,8.587,8.587,0,0,1-5.566,2.113h-.148a8.778,8.778,0,0,1-5.59-1.9,6.7,6.7,0,0,1-1.66-1.988,5.294,5.294,0,0,1-.654-2.331c-.124-3.373-.124-19.778,0-22.8a2.925,2.925,0,0,0-.932-2.162,8.007,8.007,0,0,0-3.22-1.871,14.123,14.123,0,0,0-4.455-.71,13.6,13.6,0,0,0-1.888.13,27.553,27.553,0,0,0-7.542,2.09A9.081,9.081,0,0,0,16.565,18,3.63,3.63,0,0,0,15.48,20.46c-.017,1.6,0,5.321.009,9.256v.005c.018,5.152.036,10.48-.009,11.725a4.519,4.519,0,0,1-.59,1.887,8.329,8.329,0,0,1-1.561,2.038A8.425,8.425,0,0,1,10.932,47a7.531,7.531,0,0,1-3.1.668l-.2,0a10.647,10.647,0,0,1-3.155-.535,7.508,7.508,0,0,1-2.406-1.32A5.779,5.779,0,0,1,.539,43.864,5.558,5.558,0,0,1,0,41.446V6.92a6.964,6.964,0,0,1,1.13-3.1A6.628,6.628,0,0,1,3.514,1.653,9.678,9.678,0,0,1,7.973.6,7.185,7.185,0,0,1,11.5,1.638a5.206,5.206,0,0,1,2.038,1.967A39.449,39.449,0,0,1,21.416.8,31.868,31.868,0,0,1,28.669,0c.343,0,.7,0,1.051.014a28.088,28.088,0,0,1,8.83,1.821A23.742,23.742,0,0,1,46.763,6.81c.484-.328.953-.676,1.45-1.043A23.051,23.051,0,0,1,54.694,2.12,40.322,40.322,0,0,1,68.007.316c.369,0,.748,0,1.126.008a24.286,24.286,0,0,1,9.474,2.244,21.452,21.452,0,0,1,6.815,5.072,21.836,21.836,0,0,1,4.118,6.707A20.052,20.052,0,0,1,90.92,21.5c0,4.155.012,7.831.024,11.074v.006c.014,3.9.025,6.982,0,8.87a5.578,5.578,0,0,1-2.357,4.315,9.723,9.723,0,0,1-5.445,1.906C83.025,47.673,82.9,47.676,82.786,47.676ZM7.4,4.584a4.79,4.79,0,0,0-2.171.571A2.059,2.059,0,0,0,4,6.851c-.015,1.538-.007,30.994,0,33.639,0,.712.255,3.058,3.433,3.369.085.008.176.013.273.013a4.225,4.225,0,0,0,2.858-1.136,3.03,3.03,0,0,0,.868-2.245c-.013-1.385.047-5.55.11-9.96v-.01c.062-4.354.127-8.856.134-11.438A5.236,5.236,0,0,1,13.2,15.548a12.815,12.815,0,0,1,3.769-2.69,27.381,27.381,0,0,1,9.544-2.606c.561-.042,1.138-.063,1.716-.063a18.87,18.87,0,0,1,8.5,1.847,9,9,0,0,1,3.183,2.732,8.172,8.172,0,0,1,1.426,4.314c.113,3.412.055,12.249.021,17.529-.013,1.943-.023,3.477-.021,4.134a2.511,2.511,0,0,0,.489,1.514,3.389,3.389,0,0,0,1.117.938,6.11,6.11,0,0,0,2.093.66.985.985,0,0,0,.1,0,5.47,5.47,0,0,0,2.332-.7,3.144,3.144,0,0,0,1.741-2.67c.049-2.015.026-10.764.01-16.554v-.014c-.005-2.082-.01-3.88-.01-4.84a5.018,5.018,0,0,1,1.5-3.217A13.3,13.3,0,0,1,54.4,13.2a26.8,26.8,0,0,1,5.024-1.93,31.811,31.811,0,0,1,5.494-1.02c.552-.051,1.116-.077,1.675-.077a18.06,18.06,0,0,1,4.836.652,14.794,14.794,0,0,1,4.137,1.829,9.631,9.631,0,0,1,2.891,2.815,6.644,6.644,0,0,1,1.1,3.611c.011,1.683,0,6.22,0,10.607-.007,4.745-.014,9.652,0,11.056a2.742,2.742,0,0,0,.511,1.625,3.162,3.162,0,0,0,1.145.937,5.688,5.688,0,0,0,2.13.551l.1,0a3.922,3.922,0,0,0,2.635-1,3.177,3.177,0,0,0,.833-2.375c-.037-2.417-.018-11.894-.006-17.557v-.016c0-1.774.006-3.175.006-3.834a13.168,13.168,0,0,0-2.375-6.67A17.2,17.2,0,0,0,79.5,7.746,24.48,24.48,0,0,0,73.245,5a22.513,22.513,0,0,0-6.018-.9A30.506,30.506,0,0,0,56.549,5.851a26.421,26.421,0,0,0-5.193,2.6,31.29,31.29,0,0,0-5.068,4.118A17.27,17.27,0,0,0,37.7,5.73a24.3,24.3,0,0,0-4.87-1.305,27.648,27.648,0,0,0-4.43-.358c-.493,0-.981.014-1.451.041A30.69,30.69,0,0,0,18.8,5.641a24.717,24.717,0,0,0-8.118,4.611c-.01-.036-.007-.469,0-1.068.006-.682.014-1.616,0-2.334A2.068,2.068,0,0,0,9.525,5.226a4.359,4.359,0,0,0-2.09-.642Z" transform="translate(0 0)"/>
        </g>
      </g>
      <path id="dot" class="cls-3" d="M8.525,0A8.526,8.526,0,1,1,0,8.526,8.525,8.525,0,0,1,8.525,0Z" transform="translate(329.479 65.962)"/>
    </g>
  </g>
</svg>
