<svg xmlns="http://www.w3.org/2000/svg" width="159" height="56" viewBox="0 0 159 56"><g transform="translate(6 6)"><g fill="#493b2a" stroke="#fff" stroke-miterlimit="10" stroke-width="6"><rect width="147" height="44" rx="13" stroke="none"/><rect x="-3" y="-3" width="153" height="50" rx="16" fill="none"/></g><g transform="translate(13.261 30.457) rotate(-90)"><g transform="translate(15.401 90.562) rotate(90)"><path d="M29.172,14.324V6.777c.313-6.931-11.763-4.313-11.763-.924v8.471a1.591,1.591,0,0,1-1.39,1.071,1.526,1.526,0,0,1-.154.008H15.84a1.332,1.332,0,0,1-1.411-1.078V8.163c.01-.211.027-.417.05-.62v-.8C14.787-.21,2.927,2.418,2.927,5.819v8.5A1.577,1.577,0,0,1,1.386,15.4,1.32,1.32,0,0,1,0,14.319V8.137c.057-1.249,0-6.85,0-6.85A1.332,1.332,0,0,1,1.411.209,1.12,1.12,0,0,1,2.666,1.287L2.608,2.513C6.545-1.049,13.8-.859,16.342,3.3,20.9-1.911,31.994-.915,31.994,6.777v7.547a1.463,1.463,0,0,1-2.822,0Z" transform="translate(0 0)" stroke="#5cffd9" stroke-miterlimit="10" stroke-width="3"/><path d="M29.172,14.323V6.777c.313-6.931-11.763-4.313-11.763-.924v8.471a1.59,1.59,0,0,1-1.388,1.07,1.527,1.527,0,0,1-.155.008H15.84a1.332,1.332,0,0,1-1.411-1.078V8.163q.015-.316.05-.62v-.8C14.787-.21,2.927,2.418,2.927,5.818v8.5A1.577,1.577,0,0,1,1.386,15.4,1.32,1.32,0,0,1,0,14.319V8.137c.056-1.25,0-6.85,0-6.85A1.332,1.332,0,0,1,1.411.209,1.12,1.12,0,0,1,2.666,1.287L2.608,2.513C6.545-1.049,13.8-.859,16.342,3.3,20.9-1.911,31.994-.915,31.994,6.777v7.546a1.463,1.463,0,0,1-2.823,0Z" transform="translate(0 0)" fill="#493b2a"/></g><g transform="translate(14.822 70.653) rotate(90)"><g transform="translate(0 0)"><path d="M0,1.113C0,.159.559,0,.559,0H13.631s.447.159.447,1.113a1.533,1.533,0,0,1-.447,1.272H.335A1.8,1.8,0,0,1,0,1.113Z" transform="translate(0 0)" stroke="#ff1f66" stroke-miterlimit="10" stroke-width="3"/><path d="M0,1.113C0,.159.559,0,.559,0H13.631s.447.159.447,1.113a1.533,1.533,0,0,1-.447,1.272H.335A1.8,1.8,0,0,1,0,1.113Z" transform="translate(0 12.261)" stroke="#474aff" stroke-miterlimit="10" stroke-width="3"/></g><g transform="translate(0 0)"><path d="M0,1.113C0,.159.559,0,.559,0H13.631s.447.159.447,1.113a1.533,1.533,0,0,1-.447,1.272H.335A1.8,1.8,0,0,1,0,1.113Z" transform="translate(0 0)" fill="#fff"/><path d="M0,1.113C0,.159.559,0,.559,0H13.631s.447.159.447,1.113a1.533,1.533,0,0,1-.447,1.272H.335A1.8,1.8,0,0,1,0,1.113Z" transform="translate(0 12.261)" fill="#fff"/></g></g><g transform="translate(19.742 48.948) rotate(90)"><path d="M0,1.077A1.271,1.271,0,0,1,1.265,0,1.532,1.532,0,0,1,2.687,1.077V4.925H14.226s.79,0,.79,1.077-.79,1.077-.79,1.077H2.687v5.387S3,17.391,6.955,17.391h7.271a1.256,1.256,0,0,1,.79,1.077,1.623,1.623,0,0,1-.79,1.231H6.955S0,19.7,0,12.466,0,1.077,0,1.077Z" transform="translate(0)" stroke="#5cffd9" stroke-miterlimit="10" stroke-width="3"/><path d="M0,1.077A1.271,1.271,0,0,1,1.265,0,1.532,1.532,0,0,1,2.687,1.077V4.925H14.226s.79,0,.79,1.077-.79,1.077-.79,1.077H2.687v5.387S3,17.391,6.955,17.391h7.271a1.256,1.256,0,0,1,.79,1.077,1.623,1.623,0,0,1-.79,1.231H6.955S0,19.7,0,12.466,0,1.077,0,1.077Z" transform="translate(0)" fill="#474aff"/></g><g transform="translate(15.041 20.914) rotate(90)"><path d="M10.942,14.866l-3.375,0a8.349,8.349,0,0,1-4.242-1.016,6.363,6.363,0,0,1-2.261-2.236A7.76,7.76,0,0,1,0,8.361V6.349A7.729,7.729,0,0,1,1.123,3.174,6.46,6.46,0,0,1,3.392.992,8.324,8.324,0,0,1,7.567,0h6.621A9.06,9.06,0,0,1,18.3.871a6.346,6.346,0,0,1,2.276,1.916,6.5,6.5,0,0,1,1.183,2.787V8.98a6.53,6.53,0,0,1-1.065,2.942,6.108,6.108,0,0,1-2.262,2.023,9.061,9.061,0,0,1-4.242.919H10.942ZM6.936,2.323A4.406,4.406,0,0,0,3.922,3.5,3.732,3.732,0,0,0,2.68,6.193V8.516a4.122,4.122,0,0,0,4.256,4.026h7.883a4.187,4.187,0,0,0,3.429-1.316,4.178,4.178,0,0,0,.828-2.709V6.193c0-1.926-1.316-3.87-4.257-3.87Z" transform="translate(0 0)" stroke="#474aff" stroke-miterlimit="10" stroke-width="3"/><path d="M10.942,14.865H7.567a8.349,8.349,0,0,1-4.242-1.016,6.363,6.363,0,0,1-2.261-2.235A7.747,7.747,0,0,1,0,8.361V6.348A7.717,7.717,0,0,1,1.123,3.174,6.459,6.459,0,0,1,3.392.992,8.326,8.326,0,0,1,7.567,0h6.621A9.058,9.058,0,0,1,18.3.871a6.345,6.345,0,0,1,2.276,1.916,6.493,6.493,0,0,1,1.182,2.787V8.98a6.529,6.529,0,0,1-1.064,2.942,6.107,6.107,0,0,1-2.261,2.023,9.06,9.06,0,0,1-4.242.919H10.942ZM6.937,2.323A4.406,4.406,0,0,0,3.922,3.5,3.733,3.733,0,0,0,2.68,6.194V8.516a4.123,4.123,0,0,0,4.257,4.026h7.882a4.187,4.187,0,0,0,3.429-1.316,4.179,4.179,0,0,0,.828-2.71V6.194a3.914,3.914,0,0,0-.946-2.574,4.267,4.267,0,0,0-3.311-1.3Z" transform="translate(0 0)" fill="#fff"/></g><g transform="translate(19.742 0) rotate(90)"><path d="M0,1.077A1.271,1.271,0,0,1,1.265,0,1.532,1.532,0,0,1,2.687,1.077V4.925H14.226s.79,0,.79,1.077-.79,1.077-.79,1.077H2.687v5.387S3,17.391,6.955,17.391h7.271a1.256,1.256,0,0,1,.79,1.077,1.623,1.623,0,0,1-.79,1.231H6.955S0,19.7,0,12.466,0,1.077,0,1.077Z" transform="translate(0)" stroke="#5cffd9" stroke-miterlimit="10" stroke-width="3"/><path d="M0,1.077A1.271,1.271,0,0,1,1.265,0,1.532,1.532,0,0,1,2.687,1.077V4.925H14.226s.79,0,.79,1.077-.79,1.077-.79,1.077H2.687v5.387S3,17.391,6.955,17.391h7.271a1.256,1.256,0,0,1,.79,1.077,1.623,1.623,0,0,1-.79,1.231H6.955S0,19.7,0,12.466,0,1.077,0,1.077Z" transform="translate(0)" fill="#ff1f66"/></g></g></g></svg>