<svg xmlns="http://www.w3.org/2000/svg" xmlns:xlink="http://www.w3.org/1999/xlink" width="380.088" height="331.395" viewBox="0 0 380.088 331.395"><defs><linearGradient id="a" x1="0.5" x2="0.5" y2="1" gradientUnits="objectBoundingBox"><stop offset="0" stop-color="#e29d00"/><stop offset="1" stop-color="#ea37cb"/></linearGradient></defs><g transform="translate(-1090.356 -252)"><g transform="translate(1083.913 252)"><g transform="translate(25.109)"><path d="M160.251,0A160.251,160.251,0,1,1,0,160.251,160.251,160.251,0,0,1,160.251,0Z" fill="url(#a)"/><circle cx="132.105" cy="132.105" r="132.105" transform="translate(28.399 28.399)" fill="#fff"/></g><g transform="matrix(-0.259, 0.966, -0.966, -0.259, 388, 119.65)"><line x1="108.811" y1="202.428" transform="translate(0 36.422)" fill="none" stroke="#fff" stroke-linecap="round" stroke-width="10"/><line x1="107.21" y1="89.198" transform="translate(108.843 239)" fill="none" stroke="#fff" stroke-linecap="round" stroke-width="10"/><line x1="189.968" y2="0.447" transform="translate(84.3 258.624)" fill="none" stroke="#fff" stroke-linecap="round" stroke-width="10"/><line x1="184.459" y2="180.844" transform="translate(35.626 36.706)" fill="none" stroke="#fff" stroke-linecap="round" stroke-width="10"/><line x1="78.113" y2="218.645" transform="translate(35.919 0)" fill="none" stroke="#fff" stroke-linecap="round" stroke-width="10"/></g><text transform="translate(185 57)" fill="#493b2a" font-size="12" font-family="HelveticaNeue-Bold, Helvetica Neue" font-weight="700" letter-spacing="0.036em"><tspan x="-50.91" y="0" xml:space="preserve"> Live Accounting</tspan><tspan x="-41.928" y="15" xml:space="preserve"> Development</tspan><tspan x="-20.304" y="30">Grants</tspan></text><text transform="translate(207.28 228.745)" fill="#493b2a" font-size="12" font-family="HelveticaNeue-Bold, Helvetica Neue" font-weight="700" letter-spacing="0.036em"><tspan x="0" y="0">Contingency</tspan></text><text transform="translate(215.707 163.541)" fill="#493b2a" font-size="12" font-family="HelveticaNeue-Bold, Helvetica Neue" font-weight="700" letter-spacing="0.036em"><tspan x="0" y="0">Pre-Crowdfunding</tspan><tspan x="0" y="14">Costs</tspan></text><text transform="translate(154.367 277.481)" fill="#493b2a" font-size="12" font-family="HelveticaNeue-Bold, Helvetica Neue" font-weight="700" letter-spacing="0.036em"><tspan x="0" y="0">Marketing</tspan></text><text transform="translate(80.776 211.274)" fill="#493b2a" font-size="12" font-family="HelveticaNeue-Bold, Helvetica Neue" font-weight="700" letter-spacing="0.015em"><tspan x="0" y="0">Network &amp;</tspan><tspan x="0" y="14">Operations</tspan></text><circle cx="8.217" cy="8.217" r="8.217" transform="translate(323.243 154.454)" fill="#493b2a"/><circle cx="8.217" cy="8.217" r="8.217" transform="translate(293.345 240.649)" fill="#493b2a"/><circle cx="8.217" cy="8.217" r="8.217" transform="translate(55.84 232.148)" fill="#493b2a"/><circle cx="8.217" cy="8.217" r="8.217" transform="translate(177.472 7.656)" fill="#493b2a"/><circle cx="8.217" cy="8.217" r="8.217" transform="translate(178.503 297.415)" fill="#493b2a"/></g></g></svg>